<?xml version="1.0" standalone="no"?>
<!DOCTYPE svg PUBLIC "-//W3C//DTD SVG 20010904//EN"
 "http://www.w3.org/TR/2001/REC-SVG-20010904/DTD/svg10.dtd">
<svg version="1.0" xmlns="http://www.w3.org/2000/svg"
 width="680.000000pt" height="680.000000pt" viewBox="0 0 680.000000 680.000000"
 preserveAspectRatio="xMidYMid meet">
<metadata>
Created by potrace 1.14, written by Peter Selinger 2001-2017
</metadata>
<g transform="translate(0.000000,680.000000) scale(0.100000,-0.100000)"
fill="#000000" stroke="none">
<path d="M3635 6200 c-5 -8 -4 -11 2 -7 6 4 13 0 17 -8 4 -11 -2 -15 -24 -15
-17 0 -31 0 -32 1 -2 0 -15 -4 -30 -10 -20 -8 -28 -7 -28 0 0 8 -4 8 -14 0
-10 -8 -16 -9 -21 -1 -4 6 -12 7 -24 0 -12 -6 -22 -5 -31 3 -7 7 -10 7 -7 1 7
-12 -51 -36 -58 -24 -3 5 -13 6 -22 3 -10 -4 -14 -2 -10 4 9 14 -2 45 -14 38
-4 -3 -5 -13 -2 -23 3 -11 -4 -7 -21 11 -27 27 -43 36 -31 17 4 -6 -5 -9 -19
-8 -15 1 -26 6 -26 11 0 5 -7 1 -16 -8 -9 -9 -23 -14 -30 -11 -7 3 -16 1 -19
-5 -4 -5 -10 -7 -15 -4 -5 3 -11 1 -15 -5 -4 -7 -12 -7 -26 0 -13 8 -19 7 -19
0 0 -6 -4 -8 -10 -5 -5 3 -10 1 -10 -5 0 -7 -6 -8 -19 -1 -15 8 -20 7 -25 -5
-3 -8 -11 -12 -16 -9 -8 5 -8 11 0 20 8 10 8 15 -2 21 -7 4 -10 4 -6 -1 4 -4
3 -14 -3 -22 -6 -7 -8 -13 -3 -13 5 -1 -4 -7 -21 -14 -21 -9 -32 -10 -38 -2
-5 7 -7 2 -4 -12 3 -12 2 -20 -1 -18 -4 2 -18 0 -31 -5 -18 -7 -22 -14 -17
-32 5 -23 -5 -49 -20 -49 -5 0 -8 -5 -6 -12 2 -7 -1 -7 -10 2 -10 10 -16 8
-31 -10 -10 -13 -16 -17 -12 -10 8 15 -11 16 -21 1 -3 -6 -22 -17 -40 -25 -35
-15 -42 -28 -22 -40 6 -4 8 -3 5 3 -3 5 0 10 8 10 23 0 18 -15 -7 -23 -14 -4
-24 -2 -26 5 -2 6 -16 -2 -32 -19 -17 -18 -31 -26 -35 -20 -7 11 -70 -54 -70
-73 0 -7 -8 -11 -18 -9 -9 2 -17 -2 -17 -8 0 -5 5 -10 11 -10 5 0 7 -5 4 -10
-5 -8 -11 -7 -21 1 -18 15 -18 5 1 -32 9 -16 12 -29 8 -28 -22 4 -32 -3 -28
-19 2 -12 -3 -18 -16 -19 -19 -2 -19 -1 -1 25 22 31 19 60 -3 42 -8 -6 -11
-18 -8 -26 3 -8 2 -14 -3 -13 -28 5 -35 -1 -20 -17 18 -18 20 -30 6 -39 -9 -6
-14 8 -11 28 0 4 -6 7 -15 7 -8 0 -12 -4 -9 -10 3 -5 -1 -10 -9 -10 -9 0 -16
-5 -16 -11 0 -5 -5 -7 -12 -3 -7 5 -9 2 -5 -8 3 -9 -1 -24 -8 -35 -8 -10 -15
-25 -15 -34 0 -20 -23 -69 -32 -69 -5 0 -8 -5 -8 -11 0 -5 6 -7 13 -4 6 4 5 1
-4 -7 -9 -7 -14 -18 -12 -25 2 -6 -1 -14 -7 -18 -8 -5 -8 -11 1 -21 9 -11 8
-14 -5 -14 -9 0 -16 -7 -16 -15 0 -9 -6 -12 -15 -9 -11 5 -15 -1 -15 -24 0
-17 6 -33 13 -35 8 -4 9 -8 1 -14 -6 -4 -13 -16 -17 -26 -4 -10 -11 -16 -16
-13 -13 8 -42 -4 -36 -14 3 -5 1 -12 -5 -15 -6 -4 -8 -15 -5 -25 3 -10 1 -21
-5 -25 -5 -3 -10 -1 -10 6 0 7 -3 9 -7 5 -5 -4 1 -14 11 -22 11 -8 16 -14 10
-14 -5 0 -9 -13 -9 -30 -1 -16 3 -30 9 -30 5 0 6 -3 3 -7 -4 -3 -2 -12 5 -20
8 -11 7 -12 -6 -7 -20 8 -21 0 0 -20 14 -14 14 -16 0 -16 -8 0 -20 -9 -26 -20
-7 -13 -7 -20 0 -20 6 0 8 -15 4 -37 -9 -55 -8 -75 0 -102 6 -16 5 -21 -3 -17
-7 4 -11 -1 -11 -13 0 -12 5 -21 12 -21 9 0 9 -3 0 -12 -15 -15 -16 -32 -1
-23 6 4 5 -2 -3 -14 -10 -17 -10 -25 0 -41 6 -11 12 -23 12 -27 0 -5 -5 -1
-10 7 -6 9 -10 10 -10 3 0 -6 5 -15 11 -18 5 -4 14 -18 20 -32 5 -13 13 -21
19 -18 5 3 11 1 11 -4 1 -6 2 -16 3 -21 0 -6 8 -15 16 -20 13 -9 13 -11 0 -20
-13 -8 -13 -11 -1 -22 11 -11 13 -11 6 1 -6 10 -4 12 4 7 9 -6 9 -11 -1 -24
-8 -10 -9 -13 -1 -9 6 4 14 3 18 -3 3 -5 -2 -10 -12 -10 -15 0 -15 -2 -3 -9 8
-6 18 -7 24 -4 5 3 6 1 2 -6 -4 -6 -12 -8 -18 -5 -8 5 -9 1 -4 -11 5 -14 4
-15 -7 -7 -10 8 -13 6 -13 -8 0 -10 4 -17 7 -14 4 2 10 0 14 -6 3 -5 -1 -10
-9 -10 -9 0 -16 -7 -16 -16 0 -9 5 -12 13 -8 9 6 9 4 -1 -8 -9 -11 -10 -18 -2
-23 6 -3 7 -12 4 -18 -5 -8 -3 -8 7 1 19 18 28 15 22 -8 -3 -13 0 -20 8 -20
10 -1 9 -4 -3 -11 -11 -6 -15 -16 -11 -27 4 -13 2 -13 -10 3 -9 11 -17 18 -18
15 -5 -24 -4 -48 2 -44 4 2 10 0 14 -6 3 -5 2 -10 -4 -10 -6 0 -8 -7 -4 -16 3
-8 -4 -25 -16 -38 -12 -12 -18 -27 -14 -31 5 -5 -1 -3 -11 5 -14 10 -17 11
-12 2 9 -14 -12 -45 -25 -37 -4 3 -6 -5 -3 -18 3 -17 -2 -27 -19 -36 -14 -7
-15 -10 -3 -6 14 4 17 1 12 -11 -5 -14 -4 -15 8 -5 12 10 17 8 26 -11 11 -23
11 -23 -6 -3 -16 20 -16 19 -10 -7 4 -18 2 -28 -5 -28 -6 0 -9 -9 -6 -19 5
-20 -7 -22 -32 -7 -11 7 -13 5 -8 -8 4 -9 3 -14 -2 -11 -5 3 -12 1 -15 -4 -3
-5 -15 -7 -26 -4 -16 4 -18 9 -9 24 5 10 13 18 17 18 21 -4 28 4 28 31 0 23
-2 27 -13 18 -15 -12 -18 -22 -3 -13 6 3 10 1 10 -4 0 -10 -14 -15 -33 -12 -5
1 -6 -3 -3 -7 7 -12 -28 -44 -39 -35 -4 5 -2 -3 5 -17 13 -24 12 -24 -5 -10
-17 14 -18 13 -12 -2 7 -19 -8 -25 -18 -8 -5 8 -12 7 -22 -1 -11 -10 -16 -10
-22 0 -6 10 -10 9 -14 -4 -4 -9 -3 -13 3 -10 6 3 10 1 10 -4 0 -6 -8 -11 -18
-11 -19 0 -54 -35 -45 -44 4 -3 -1 -6 -10 -6 -10 0 -15 -7 -12 -20 2 -11 -2
-20 -8 -20 -8 0 -8 -3 2 -9 9 -6 10 -11 2 -15 -6 -4 -11 -13 -11 -19 0 -7 4
-6 10 3 7 11 10 11 10 2 0 -7 4 -11 8 -8 5 3 9 -1 9 -9 0 -8 -4 -15 -9 -15 -4
0 -8 -4 -8 -9 0 -4 12 -8 28 -7 29 1 57 28 64 61 3 17 5 15 10 -7 3 -15 2 -26
-2 -23 -3 2 -14 -7 -24 -20 -10 -13 -24 -21 -31 -19 -17 7 -29 -12 -14 -22 8
-5 9 -3 4 6 -5 9 -4 11 4 6 9 -6 9 -11 1 -21 -6 -8 -10 -19 -9 -27 3 -27 -1
-38 -16 -38 -11 0 -14 -7 -11 -25 4 -23 3 -24 -17 -14 -18 9 -20 9 -9 -2 16
-17 15 -29 -2 -29 -18 0 -25 -28 -14 -57 4 -14 4 -23 -2 -23 -6 0 -10 -7 -10
-15 0 -16 -20 -16 -31 -1 -4 4 -9 3 -13 -2 -3 -6 3 -14 15 -17 17 -6 19 -9 8
-16 -8 -4 -14 -14 -14 -21 0 -7 -6 -13 -12 -13 -7 0 -13 -4 -12 -8 0 -5 -9
-16 -20 -26 -15 -13 -17 -21 -9 -29 8 -8 7 -13 -5 -18 -9 -3 -17 -11 -17 -17
0 -6 -6 -18 -14 -26 -20 -22 -28 -71 -13 -71 7 0 6 -4 -3 -10 -13 -8 -13 -10
0 -10 12 0 12 -2 1 -12 -10 -10 -15 -10 -18 -1 -2 7 -11 9 -19 6 -7 -3 -11 -9
-8 -14 3 -5 -2 -9 -10 -9 -9 0 -16 -9 -16 -20 0 -13 -5 -18 -15 -14 -13 5 -13
9 -3 23 10 13 10 14 -2 4 -14 -13 -24 -47 -11 -39 4 3 13 1 19 -3 17 -10 -5
-61 -25 -61 -7 0 -16 -7 -19 -15 -4 -8 -10 -13 -14 -10 -4 3 -14 -3 -21 -12
-10 -12 -10 -14 -1 -9 6 4 12 4 12 -1 0 -12 -16 -35 -23 -34 -12 1 -67 -34
-67 -43 0 -5 7 -3 15 4 20 17 20 -4 0 -24 -9 -8 -23 -12 -32 -9 -11 5 -14 3
-8 -6 6 -10 3 -11 -14 -2 -17 9 -21 9 -19 -1 2 -7 -4 -12 -12 -10 -8 2 -20 -4
-27 -14 -7 -9 -26 -17 -43 -18 -16 -1 -30 -6 -30 -13 0 -6 -5 -13 -12 -15 -20
-7 -18 -38 2 -38 23 0 35 16 18 24 -7 3 6 4 29 2 24 -2 53 2 65 8 47 24 109
46 103 36 -3 -5 1 -10 10 -10 23 0 14 -23 -13 -35 -12 -5 -22 -16 -22 -23 0
-7 -4 -10 -10 -7 -5 3 -10 1 -10 -4 0 -6 -11 -11 -23 -11 -25 0 -49 -22 -60
-52 -5 -14 -1 -18 18 -18 14 0 25 5 25 10 0 6 11 15 25 20 14 5 25 14 25 20 0
5 5 10 10 10 6 0 31 10 56 21 50 24 61 20 65 -28 3 -24 -4 -40 -26 -65 -17
-18 -22 -26 -13 -19 9 7 22 10 28 6 6 -4 10 -3 9 2 -3 20 2 34 11 28 5 -3 10
-1 10 5 0 6 5 8 10 5 6 -3 11 1 11 9 3 37 5 41 22 38 11 -2 17 4 17 15 0 15 2
16 10 3 8 -12 10 -11 10 8 0 12 5 22 11 22 6 0 9 6 6 14 -4 11 1 13 19 10 16
-3 23 -1 19 6 -3 5 1 10 11 10 9 0 25 10 35 22 11 12 19 16 19 8 0 -10 3 -10
15 0 9 7 18 10 22 6 3 -3 0 -6 -8 -6 -11 -1 -10 -3 2 -10 11 -6 15 -18 11 -36
-4 -20 -2 -25 8 -19 9 6 11 4 5 -5 -5 -8 -2 -18 9 -26 10 -7 19 -21 21 -31 1
-10 9 -17 16 -15 9 2 8 -3 -4 -16 -9 -10 -14 -22 -10 -26 5 -4 3 -7 -2 -6 -6
1 -19 2 -30 1 -17 -1 -18 -3 -5 -11 13 -9 13 -10 -1 -10 -8 0 -24 -8 -35 -18
-10 -10 -30 -18 -44 -18 -19 0 -24 -5 -22 -18 2 -12 -1 -16 -9 -10 -9 5 -10 2
-5 -11 5 -15 4 -16 -9 -5 -9 7 -15 9 -14 4 4 -21 -2 -34 -13 -31 -7 1 -12 -4
-11 -10 2 -7 -4 -13 -13 -13 -9 0 -12 -5 -8 -12 5 -8 2 -9 -9 -5 -10 3 -17 2
-17 -3 0 -6 5 -10 11 -10 6 0 9 -9 6 -20 -3 -11 -2 -20 1 -20 4 0 7 -14 7 -30
1 -20 -3 -29 -11 -26 -8 3 -10 -3 -6 -16 4 -16 2 -19 -9 -13 -11 7 -11 5 1
-10 8 -10 10 -16 4 -12 -7 4 -14 -3 -18 -18 -4 -16 -13 -25 -25 -25 -10 0 -26
-11 -34 -24 -14 -21 -14 -25 1 -41 13 -13 13 -16 2 -9 -20 12 -41 14 -35 4 8
-12 -6 -41 -16 -34 -5 3 -6 10 -3 16 4 7 2 8 -5 4 -9 -6 -9 -11 0 -22 10 -13
15 -12 33 3 15 13 17 14 8 2 -6 -9 -8 -20 -4 -24 4 -5 2 -5 -4 -2 -6 4 -20 -1
-30 -9 -10 -9 -12 -12 -4 -8 13 7 13 5 1 -9 -7 -9 -17 -15 -20 -12 -4 2 -8 -2
-8 -10 0 -8 5 -12 11 -9 6 3 -2 -6 -18 -19 -17 -15 -24 -27 -17 -31 7 -4 4
-13 -8 -25 -11 -11 -17 -29 -16 -44 2 -15 -4 -32 -13 -39 -15 -12 -16 -11 -3
5 12 15 12 17 -3 11 -11 -4 -14 -13 -9 -32 4 -16 2 -23 -5 -18 -6 3 -14 1 -18
-5 -4 -8 -3 -9 4 -5 7 4 12 2 12 -3 0 -6 -5 -11 -11 -11 -7 0 -9 -9 -6 -21 4
-16 2 -19 -11 -14 -14 5 -14 4 -5 -6 10 -10 9 -17 -5 -33 -16 -20 -16 -20 1
-7 10 8 17 9 17 3 0 -6 -9 -14 -20 -17 -12 -4 -17 -11 -13 -18 4 -7 -1 -6 -10
2 -15 12 -17 12 -11 -3 4 -11 2 -16 -7 -14 -8 2 -13 -4 -13 -14 1 -10 -3 -15
-9 -11 -6 4 -8 -2 -5 -15 4 -12 1 -25 -4 -29 -7 -4 -8 -1 -3 8 5 8 4 11 0 6
-5 -4 -9 -17 -11 -30 -1 -12 -4 -32 -7 -45 -4 -13 -2 -20 4 -17 5 4 7 11 4 16
-4 5 1 9 9 9 20 0 23 -21 10 -78 -3 -15 -9 -20 -17 -15 -9 5 -9 4 0 -8 15 -19
1 -45 -18 -34 -8 5 -6 -1 4 -12 26 -30 21 -48 -14 -45 -3 1 -6 -5 -6 -13 0 -8
5 -11 11 -8 6 4 5 -1 -3 -10 -7 -9 -10 -17 -5 -17 5 0 0 -7 -11 -16 -12 -9
-16 -18 -10 -22 6 -4 10 -17 11 -30 0 -16 -4 -21 -16 -17 -11 4 -20 -3 -28
-20 -7 -15 -17 -23 -26 -19 -11 4 -14 -2 -12 -26 1 -18 -3 -34 -10 -37 -7 -2
-11 -12 -9 -22 2 -10 -1 -24 -6 -32 -6 -9 -9 -1 -9 28 0 35 3 41 17 36 11 -4
14 -3 9 5 -4 7 -14 12 -22 12 -8 0 -13 4 -9 9 10 18 -13 21 -26 4 -10 -12 -10
-14 -2 -9 9 5 13 -2 13 -24 0 -21 -4 -29 -12 -24 -6 4 -8 3 -4 -4 3 -6 1 -14
-5 -17 -5 -4 -8 -14 -5 -22 3 -8 1 -11 -4 -8 -6 3 -10 -2 -10 -12 0 -14 -2
-15 -9 -4 -5 7 -14 10 -20 7 -6 -4 -9 -11 -6 -16 3 -4 -2 -13 -11 -20 -10 -9
-11 -15 -4 -20 6 -4 8 -14 4 -23 -3 -9 -11 -14 -17 -10 -6 4 -8 0 -4 -10 3 -9
0 -22 -7 -29 -7 -7 -12 -23 -11 -36 1 -12 -2 -22 -7 -22 -5 0 -6 -5 -3 -10 3
-6 -1 -13 -9 -16 -9 -3 -16 -14 -16 -23 0 -10 -3 -21 -7 -25 -8 -8 -9 -13 -11
-63 -1 -17 -9 -39 -18 -48 -9 -8 -13 -22 -10 -31 3 -8 2 -13 -2 -10 -4 2 -12
-7 -19 -20 -9 -20 -8 -24 4 -24 12 0 12 -2 -1 -16 -9 -8 -16 -20 -16 -25 0 -6
-5 -7 -11 -3 -8 4 -8 1 -1 -12 7 -14 6 -24 -3 -38 -8 -10 -11 -24 -8 -32 4
-10 0 -12 -13 -8 -15 5 -14 3 4 -10 37 -28 26 -63 -19 -58 -3 1 -4 -9 -3 -21
1 -12 3 -27 3 -34 1 -7 8 -10 19 -6 15 5 14 4 -2 -9 -10 -8 -16 -20 -13 -25 7
-11 -42 -49 -57 -45 -5 2 -6 -4 -3 -11 3 -8 -1 -24 -8 -35 -8 -11 -13 -29 -10
-41 2 -13 -4 -26 -18 -36 -13 -9 -16 -15 -7 -15 10 0 8 -5 -6 -16 -10 -8 -12
-13 -4 -9 8 4 6 -1 -4 -9 -11 -9 -24 -16 -29 -16 -5 0 -3 -8 4 -17 12 -15 12
-16 -3 -10 -22 8 -33 -10 -18 -28 10 -12 9 -15 -9 -15 -12 0 -20 -4 -17 -9 3
-4 18 -6 33 -4 27 5 27 5 8 -10 -18 -15 245 -16 2970 -16 1738 -1 2984 3 2976
8 -8 5 -12 18 -8 30 3 12 2 21 -1 21 -4 0 -8 15 -9 33 -2 29 -8 64 -13 77 -1
3 -2 8 -1 13 0 4 -3 7 -9 7 -5 0 -7 6 -4 14 3 8 1 17 -5 21 -6 3 -11 11 -11
16 0 6 4 7 10 4 6 -3 7 1 4 9 -3 9 -9 15 -12 14 -13 -4 -52 23 -47 32 3 5 0
12 -6 16 -8 4 -9 3 -5 -4 4 -7 3 -12 -2 -12 -5 0 -12 13 -14 29 -3 19 0 27 7
25 22 -9 11 25 -12 37 -20 11 -26 11 -34 -1 -7 -11 -8 -7 -5 14 4 22 2 26 -6
18 -7 -7 -15 -12 -18 -12 -9 0 -5 38 5 47 4 5 5 1 0 -7 -6 -12 -5 -13 5 -3 8
7 14 21 15 31 2 26 -34 26 -45 -1 l-9 -22 0 23 c-1 29 2 38 13 34 5 -2 6 5 2
14 -5 14 -4 15 9 4 9 -7 19 -10 22 -6 4 4 3 10 -2 14 -6 4 -11 17 -12 29 -2
17 1 21 15 17 10 -4 13 -2 7 3 -14 11 -19 47 -6 38 7 -4 8 0 4 11 -4 11 -2 15
4 11 6 -4 13 0 17 8 3 8 -2 18 -11 23 -14 8 -14 10 1 15 9 4 16 11 16 17 0 6
-4 9 -9 6 -5 -3 -11 1 -15 9 -3 8 0 17 6 21 7 5 8 2 3 -6 -5 -9 -4 -11 4 -6 9
6 9 12 -1 24 -20 27 -22 28 -15 9 4 -10 3 -16 -2 -12 -6 3 -9 14 -8 25 1 10 4
17 8 14 9 -5 17 18 12 34 -3 6 -10 9 -16 5 -8 -5 -8 -2 0 9 15 18 7 29 -15 21
-10 -3 -13 -1 -7 4 16 13 16 95 0 89 -7 -2 -12 3 -11 12 0 9 -9 21 -21 27 -13
5 -23 18 -23 27 0 11 -5 15 -15 12 -11 -5 -14 -1 -9 12 5 17 4 17 -12 -1 -15
-18 -16 -18 -10 -1 5 14 3 17 -10 12 -15 -6 -15 -4 -3 11 12 15 12 16 -5 10
-16 -6 -17 -5 -6 8 10 12 15 13 21 4 4 -7 15 -14 25 -15 12 -2 14 0 6 8 -8 8
-8 17 -1 30 7 13 7 18 -3 16 -6 -2 -13 3 -14 10 -1 6 -2 17 -3 23 0 5 -6 7
-13 3 -7 -4 -8 -3 -4 5 6 9 11 9 24 -1 13 -11 14 -11 4 8 -6 12 -8 24 -4 28 3
4 -2 4 -13 0 -11 -4 -17 -4 -13 1 4 4 2 15 -5 23 -10 13 -9 14 1 8 11 -7 12
-4 3 12 -6 12 -16 24 -23 28 -7 4 -8 3 -4 -4 5 -8 2 -10 -8 -6 -9 4 -16 18
-16 34 0 20 -6 31 -20 35 -11 3 -21 11 -21 16 -1 5 -2 13 -3 18 -2 19 -13 21
-26 6 -12 -14 -15 -14 -31 1 -20 18 -27 50 -9 39 6 -4 7 -11 4 -17 -4 -7 -2
-8 4 -4 8 4 8 15 2 31 -9 23 -6 29 11 27 6 -1 8 6 12 58 3 40 -2 62 -13 55 -4
-3 -11 11 -14 30 -4 20 -11 33 -16 30 -6 -3 -7 1 -4 9 3 8 2 21 -2 28 -12 19
-14 38 -4 38 14 0 21 -18 9 -22 -7 -2 -6 -8 3 -16 12 -9 14 -8 13 8 -1 11 -4
23 -8 26 -3 4 -2 15 4 25 7 14 6 19 -2 19 -8 0 -7 5 2 17 10 11 10 14 2 9 -7
-4 -13 -2 -13 3 0 6 -5 11 -11 11 -8 0 -8 -5 1 -15 7 -8 8 -15 3 -15 -10 0
-38 50 -35 63 1 4 -3 7 -9 7 -5 0 -8 4 -5 9 3 4 -6 7 -20 5 -14 -1 -23 0 -20
3 3 4 1 12 -4 18 -15 18 -19 75 -6 76 6 1 19 2 28 2 10 0 15 4 12 8 -3 5 -9 7
-14 4 -10 -6 -35 34 -26 42 3 4 1 12 -5 20 -6 7 -8 13 -4 13 4 0 2 6 -5 14 -6
8 -18 12 -26 9 -8 -3 -14 0 -14 7 0 6 5 8 10 5 6 -3 10 -2 10 4 0 6 6 9 13 7
6 -1 9 -1 4 1 -4 3 -4 9 -1 15 4 6 -1 6 -14 -1 -13 -7 -29 -8 -44 -2 -13 6
-19 10 -14 10 5 1 1 10 -8 20 -10 11 -19 25 -21 33 -10 41 -18 57 -28 51 -6
-3 -7 -1 -3 5 4 6 -1 24 -11 39 -14 21 -15 25 -3 19 8 -4 4 1 -9 12 -16 13
-20 21 -12 26 6 4 9 12 6 17 -3 5 2 6 12 3 15 -5 16 -4 3 5 -8 6 -10 11 -5 11
6 0 3 6 -5 13 -19 15 -27 52 -9 41 8 -4 10 -3 5 5 -10 15 -29 3 -22 -15 3 -8
1 -14 -4 -14 -6 0 -10 9 -10 21 0 13 -4 18 -12 13 -8 -5 -8 -2 1 10 8 9 10 16
5 15 -5 -1 -17 -1 -27 0 -15 1 -16 4 -6 22 8 15 8 19 0 15 -6 -4 -11 -3 -11 3
0 6 -8 8 -17 4 -15 -5 -14 -3 2 11 14 11 15 15 5 14 -8 -2 -14 3 -13 9 2 7 -4
13 -12 13 -9 0 -12 -6 -8 -17 6 -15 5 -16 -9 -3 -11 11 -13 19 -6 28 6 7 8 15
4 19 -3 3 -6 1 -6 -5 0 -7 -7 -12 -17 -12 -15 0 -15 2 1 19 11 12 14 21 7 26
-10 6 -15 -1 -12 -17 0 -4 -6 -5 -15 -1 -9 3 -12 9 -7 12 12 8 11 51 0 44 -5
-3 -6 4 -2 16 4 14 2 21 -7 21 -8 0 -20 9 -28 20 -8 11 -20 20 -27 20 -7 0
-13 4 -13 9 0 4 11 6 25 3 14 -2 23 -7 21 -10 -8 -7 14 -32 28 -32 7 0 6 4 -2
9 -8 4 -13 12 -12 17 2 4 -4 11 -11 15 -8 3 -24 11 -36 17 -22 12 -40 1 -29
-17 4 -5 -2 -8 -11 -6 -10 1 -24 -2 -31 -8 -9 -7 -11 -6 -6 7 4 10 13 15 20
12 8 -3 14 -1 14 4 0 6 -18 8 -40 6 -22 -2 -41 1 -43 7 -2 8 -6 7 -11 -1 -4
-7 -2 -12 3 -12 6 0 11 -5 11 -11 0 -8 -5 -8 -15 1 -8 7 -13 16 -10 20 7 12
-8 20 -40 22 -15 2 -30 8 -32 15 -3 7 -9 10 -14 7 -5 -3 -8 0 -7 7 2 6 -3 14
-10 16 -8 3 -10 -2 -6 -14 5 -17 5 -17 -6 0 -6 9 -21 17 -33 18 -21 0 -21 1
-2 9 12 5 14 9 6 9 -8 1 -11 4 -8 8 4 3 -2 12 -13 20 -11 8 -20 20 -20 26 0 8
3 8 9 -2 5 -8 11 -9 15 -3 3 6 2 13 -4 17 -6 4 -8 11 -4 16 3 5 10 7 15 4 5
-4 9 0 9 7 0 10 2 10 8 1 10 -15 46 7 62 37 9 16 8 18 -6 13 -12 -4 -15 -3
-10 5 4 8 0 12 -11 12 -10 0 -14 4 -8 8 16 11 12 78 -4 74 -11 -2 -12 0 -3 11
7 8 8 18 4 23 -4 5 4 0 18 -11 13 -11 20 -13 13 -5 -19 26 -20 55 -1 55 10 0
18 5 17 10 0 6 -8 9 -17 7 -15 -2 -15 -1 -2 8 13 9 13 11 0 20 -12 8 -12 10
-1 10 11 0 11 4 -2 18 -10 10 -17 22 -17 27 0 5 7 0 15 -11 15 -18 15 -18 8 0
-4 13 -3 17 5 12 6 -3 14 -1 18 5 4 7 3 9 -4 5 -6 -3 -15 6 -20 21 -9 24 -11
25 -11 6 -1 -16 -6 -20 -21 -16 -11 3 -17 10 -14 15 4 6 0 15 -7 20 -11 7 -9
9 7 5 13 -3 21 1 21 9 0 7 -4 11 -7 9 -4 -3 -8 7 -9 20 -5 72 -3 70 -29 39
-19 -24 -22 -25 -12 -6 6 13 9 26 6 30 -3 3 -6 2 -6 -3 0 -4 -7 -2 -15 5 -8 7
-15 23 -15 35 0 13 -5 25 -12 27 -7 3 -3 13 11 27 22 22 22 23 2 16 -12 -4
-21 -2 -21 4 0 6 6 11 14 11 8 0 17 7 20 16 4 10 2 13 -7 7 -6 -4 -18 -8 -25
-9 -11 -2 -11 0 0 14 10 12 10 14 1 8 -10 -5 -13 3 -13 30 0 33 -2 35 -17 23
-17 -13 -17 -12 -2 6 28 35 29 42 6 41 -14 -1 -22 5 -21 15 1 9 -4 16 -11 16
-7 0 -11 -7 -7 -15 3 -10 0 -13 -9 -10 -8 3 -13 13 -11 23 2 9 -1 14 -7 11 -5
-4 -12 -2 -16 4 -3 5 0 10 7 10 10 0 10 2 0 9 -8 4 -13 10 -12 12 6 14 -14 58
-24 52 -6 -3 -8 -3 -4 2 4 4 3 14 -4 22 -6 7 -8 16 -5 20 4 3 2 14 -4 24 -7
15 -6 19 6 19 10 0 14 8 13 24 -1 14 -6 22 -10 20 -4 -3 -5 -10 -2 -18 3 -7
-2 -13 -11 -13 -10 0 -13 6 -10 17 6 18 -19 35 -36 24 -8 -5 -14 17 -10 39 1
5 -3 6 -9 2 -6 -3 -8 -11 -4 -16 3 -6 -3 -5 -15 3 -12 7 -21 22 -21 33 0 17
-2 17 -10 5 -8 -13 -10 -12 -10 3 0 10 -4 16 -9 13 -5 -3 -11 1 -15 9 -3 8 -1
15 5 15 6 0 7 5 4 10 -4 6 -12 7 -18 4 -7 -4 -9 -3 -4 1 4 5 0 19 -9 33 -9 13
-11 21 -4 17 9 -6 9 -3 1 12 -6 11 -7 24 -3 28 4 5 1 5 -6 1 -7 -4 -10 -12 -7
-17 4 -5 4 -9 0 -9 -3 0 -10 10 -14 23 -6 15 -4 27 6 39 10 11 11 18 3 23 -6
3 -9 3 -8 -2 2 -4 0 -9 -4 -10 -5 -2 -8 -1 -9 2 0 2 -4 18 -9 35 -6 21 -5 28
2 24 7 -5 8 -2 2 7 -5 8 -7 22 -5 33 2 13 -1 16 -11 10 -10 -6 -10 -4 1 9 10
13 10 17 1 17 -10 0 -10 3 0 15 7 9 10 18 6 22 -3 3 -6 2 -6 -4 0 -5 -7 -10
-15 -10 -8 0 -15 4 -15 9 0 5 -6 6 -12 2 -8 -5 -7 0 2 11 8 10 10 16 3 12 -6
-4 -18 -1 -26 7 -8 8 -18 12 -22 8 -5 -4 -5 -1 -1 6 6 9 12 9 29 1 21 -11 21
-11 6 7 -20 23 -22 59 -3 43 8 -7 14 -6 20 2 4 8 3 9 -4 5 -7 -4 -12 -3 -12 3
0 15 18 23 25 11 4 -6 11 -5 20 3 9 9 10 16 2 25 -6 8 -7 16 -1 20 11 8 12 48
1 58 -13 14 -7 27 7 15 11 -9 16 -9 22 0 4 7 3 9 -4 5 -17 -10 -19 28 -2 42 9
9 10 11 1 6 -9 -4 -12 -2 -9 7 3 8 12 13 19 11 9 -1 8 3 -3 11 -10 8 -18 22
-18 31 0 10 -5 14 -12 10 -7 -5 -8 -3 -2 7 4 8 9 20 10 27 2 11 0 11 -14 0
-13 -11 -15 -11 -9 5 4 10 2 17 -5 17 -7 0 -3 7 8 15 17 13 17 14 2 15 -10 0
-18 7 -18 16 0 10 -6 14 -14 11 -11 -5 -12 1 -3 28 5 19 14 32 18 29 5 -3 17
8 26 24 10 16 25 28 34 27 11 -2 14 4 11 26 -2 16 -8 27 -12 24 -4 -3 -7 6 -6
19 1 15 6 22 16 20 8 -3 1 2 -17 11 -32 15 -52 35 -34 35 5 0 12 -6 14 -12 4
-10 6 -10 6 0 1 8 -8 16 -19 19 -16 4 -19 11 -15 34 4 20 1 29 -8 29 -9 0 -13
9 -12 25 2 14 -1 25 -5 25 -5 0 -7 14 -5 30 2 17 -1 30 -7 30 -5 0 -8 -7 -4
-15 7 -20 -4 -19 -21 3 -10 11 -12 12 -8 2 4 -9 1 -8 -8 3 -11 14 -16 15 -20
5 -4 -10 -6 -10 -6 1 -1 9 -5 10 -13 3 -16 -12 -62 3 -53 18 3 5 2 10 -2 10
-5 0 -7 18 -5 40 3 26 8 38 16 34 6 -3 3 1 -6 9 -19 15 -25 32 -8 22 6 -3 10
-1 10 4 0 14 -13 14 -28 -1 -9 -9 -12 -8 -12 6 0 9 -4 14 -10 11 -6 -4 -10 6
-10 24 0 16 -5 33 -12 37 -7 4 -8 3 -4 -4 12 -19 -1 -14 -28 12 -27 24 -35 43
-14 30 7 -5 8 -3 4 5 -5 7 -14 10 -21 7 -8 -3 -11 2 -8 14 4 15 1 18 -16 15
-12 -2 -21 0 -21 6 0 8 15 13 33 10 5 -1 5 4 2 10 -4 6 -16 8 -28 5 -15 -4
-17 -2 -8 7 16 16 14 37 -4 31 -8 -4 -12 -10 -9 -15 3 -5 -3 -6 -12 -2 -11 4
-13 8 -6 11 15 5 16 39 0 48 -7 5 -8 3 -3 -6 6 -10 4 -12 -9 -7 -10 4 -22 7
-27 7 -5 0 -9 6 -9 14 0 7 -10 17 -22 21 l-23 8 23 4 c19 4 21 7 11 19 -6 8
-20 14 -31 14 -10 0 -16 5 -13 10 4 6 11 7 17 4 7 -5 8 -2 4 5 -5 7 -14 10
-21 7 -9 -3 -12 2 -10 15 3 12 0 17 -7 13 -7 -5 -9 -2 -5 9 4 11 1 15 -12 12
-21 -4 -46 31 -29 41 7 5 8 3 3 -6 -5 -9 -4 -11 4 -6 17 11 2 28 -18 21 -12
-3 -24 3 -37 19 -13 18 -20 22 -26 13 -5 -8 -8 -7 -8 5 0 9 -5 20 -12 24 -8 5
-9 2 -4 -11 5 -15 4 -16 -8 -5 -9 6 -15 15 -14 18 2 19 -3 32 -13 32 -5 0 -7
-6 -3 -12 3 -7 -7 1 -23 17 -16 17 -28 32 -26 34 5 8 -28 32 -46 34 -11 1 -18
3 -16 6 3 2 -1 11 -7 20 -10 13 -10 14 2 4 16 -15 40 -17 40 -4 0 5 -8 8 -17
7 -10 0 -17 5 -15 12 1 8 -2 11 -7 7 -6 -3 -15 3 -20 13 -6 12 -20 19 -33 18
-13 -1 -27 0 -33 3 -5 3 -22 5 -38 6 -16 1 -33 8 -38 16 -6 10 -9 10 -9 1 0
-10 -4 -10 -20 0 -15 10 -22 10 -32 0 -17 -17 -28 -15 -27 6 0 10 3 12 6 4 5
-12 23 -7 23 7 0 12 -34 9 -42 -3 -5 -7 -8 -6 -8 4 0 13 -1 13 -10 0 -8 -12
-10 -12 -10 -1 0 11 -3 11 -17 0 -14 -12 -16 -12 -8 0 6 11 4 13 -8 8 -10 -4
-23 3 -35 20 -14 20 -21 23 -27 13z m363 -111 c17 -27 0 -31 -20 -5 -12 17
-13 23 -4 23 7 0 18 -8 24 -18z m382 -449 c0 -5 -5 -10 -11 -10 -5 0 -7 5 -4
10 3 6 8 10 11 10 2 0 4 -4 4 -10z m40 0 c0 -5 -7 -7 -15 -4 -8 4 -15 8 -15
10 0 2 7 4 15 4 8 0 15 -4 15 -10z m-2210 -634 c0 -3 -4 -8 -10 -11 -5 -3 -10
-1 -10 4 0 6 5 11 10 11 6 0 10 -2 10 -4z m-190 -1116 c-8 -5 -19 -10 -25 -10
-5 0 -3 5 5 10 8 5 20 10 25 10 6 0 3 -5 -5 -10z m-30 -48 c0 -4 -10 -9 -22
-9 -18 -2 -20 0 -8 7 18 12 30 13 30 2z m-19 -45 c-10 -9 -11 -8 -5 6 3 10 9
15 12 12 3 -3 0 -11 -7 -18z m-101 -282 c0 -8 -4 -15 -10 -15 -5 0 -7 7 -4 15
4 8 8 15 10 15 2 0 4 -7 4 -15z m3450 -169 c0 -11 -19 -15 -25 -6 -3 5 1 10 9
10 9 0 16 -2 16 -4z m-3591 -153 c0 -25 -1 -26 -9 -8 -12 27 -12 35 0 35 6 0
10 -12 9 -27z m3621 -248 c-7 -9 -15 -13 -19 -10 -3 3 1 10 9 15 21 14 24 12
10 -5z m-80 -99 c0 -2 -7 -7 -16 -10 -8 -3 -12 -2 -9 4 6 10 25 14 25 6z
m-3633 -96 c-16 -27 -37 -33 -37 -11 0 22 4 26 29 28 18 2 19 -1 8 -17z m3866
-37 c-3 -7 -6 -13 -8 -13 -2 0 -5 6 -8 13 -3 8 1 14 8 14 7 0 11 -6 8 -14z
m335 -342 c11 -7 10 -9 -3 -14 -9 -4 -14 -3 -10 2 3 5 -1 12 -7 14 -7 3 -8 6
-3 6 6 0 16 -3 23 -8z m-4241 -123 c-3 -8 -6 -5 -6 6 -1 11 2 17 5 13 3 -3 4
-12 1 -19z m4533 -493 c0 -8 -4 -15 -8 -15 -5 0 -9 7 -9 15 0 8 4 15 9 15 4 0
8 -7 8 -15z m167 -691 c-3 -3 -12 -4 -19 -1 -8 3 -5 6 6 6 11 1 17 -2 13 -5z
m128 -424 c3 -5 1 -10 -4 -10 -6 0 -11 5 -11 10 0 6 2 10 4 10 3 0 8 -4 11
-10z m-5509 -32 c4 -6 3 -8 -3 -5 -6 4 -13 -2 -16 -13 -3 -11 -1 -20 5 -20 5
0 6 -4 3 -10 -4 -6 -13 -5 -26 3 -18 11 -18 13 -2 25 10 7 12 12 4 12 -7 0 -9
5 -6 10 8 14 32 13 41 -2z m5518 -104 c5 -14 4 -15 -9 -4 -17 14 -19 20 -6 20
5 0 12 -7 15 -16z m-5554 -43 c0 -5 -8 -12 -17 -16 -28 -13 -44 -14 -37 -4 3
5 9 7 14 4 4 -3 10 2 14 10 6 16 26 21 26 6z"/>
<path d="M2907 6109 c7 -7 15 -10 18 -7 3 3 -2 9 -12 12 -14 6 -15 5 -6 -5z"/>
<path d="M4650 5320 c0 -5 5 -10 11 -10 5 0 7 5 4 10 -3 6 -8 10 -11 10 -2 0
-4 -4 -4 -10z"/>
<path d="M2160 4961 c0 -6 4 -12 8 -15 5 -3 9 1 9 9 0 8 -4 15 -9 15 -4 0 -8
-4 -8 -9z"/>
<path d="M2155 4920 c3 -5 8 -10 11 -10 2 0 4 5 4 10 0 6 -5 10 -11 10 -5 0
-7 -4 -4 -10z"/>
<path d="M4854 4914 c3 -8 2 -12 -3 -9 -5 3 -13 0 -16 -6 -5 -7 0 -10 11 -7
21 4 33 38 14 38 -7 0 -9 -7 -6 -16z"/>
<path d="M4874 4722 c3 -5 0 -13 -6 -15 -9 -4 -10 -6 -1 -6 17 -1 25 16 12 25
-7 4 -9 3 -5 -4z"/>
<path d="M4780 4438 c0 -4 6 -8 14 -8 8 0 17 4 20 8 2 4 -4 8 -15 8 -10 0 -19
-4 -19 -8z"/>
<path d="M2096 3948 c3 -5 10 -6 15 -3 13 9 11 12 -6 12 -8 0 -12 -4 -9 -9z"/>
<path d="M1878 3623 c7 -3 16 -2 19 1 4 3 -2 6 -13 5 -11 0 -14 -3 -6 -6z"/>
<path d="M5350 3136 c0 -2 8 -10 18 -17 15 -13 16 -12 3 4 -13 16 -21 21 -21
13z"/>
<path d="M1463 2950 c1 -22 39 -22 45 1 3 11 2 11 -6 1 -7 -11 -12 -11 -25 2
-14 15 -16 14 -14 -4z"/>
<path d="M5380 2779 c0 -5 5 -7 10 -4 6 3 10 8 10 11 0 2 -4 4 -10 4 -5 0 -10
-5 -10 -11z"/>
<path d="M1846 2737 c3 -10 9 -15 12 -12 3 3 0 11 -7 18 -10 9 -11 8 -5 -6z"/>
<path d="M1647 2709 c7 -7 15 -10 18 -7 3 3 -2 9 -12 12 -14 6 -15 5 -6 -5z"/>
<path d="M5845 2320 c-3 -5 1 -10 9 -10 8 0 20 -8 25 -17 6 -10 10 -13 10 -8
0 12 -24 45 -32 45 -3 0 -9 -4 -12 -10z"/>
<path d="M1406 2258 c3 -5 10 -6 15 -3 13 9 11 12 -6 12 -8 0 -12 -4 -9 -9z"/>
<path d="M5923 2182 c1 -18 6 -32 10 -32 13 1 35 -25 29 -34 -3 -5 0 -6 7 -2
9 6 9 12 -2 24 -8 10 -22 31 -30 47 l-16 30 2 -33z"/>
<path d="M6040 2080 c0 -5 -8 -7 -17 -4 -17 5 -17 5 0 -6 19 -12 24 -36 5 -24
-7 4 -8 3 -4 -5 11 -17 24 -5 24 24 0 14 -2 25 -4 25 -2 0 -4 -4 -4 -10z"/>
<path d="M6030 2012 c0 -17 21 -25 31 -13 5 6 6 9 3 6 -4 -3 -13 0 -21 6 -9 8
-13 8 -13 1z"/>
<path d="M6095 1841 c-3 -5 0 -13 6 -17 7 -4 9 -3 5 4 -3 5 0 13 6 15 9 4 10
6 1 6 -6 1 -14 -3 -18 -8z"/>
<path d="M1260 1460 c-9 -6 -10 -10 -3 -10 6 0 15 5 18 10 8 12 4 12 -15 0z"/>
<path d="M6436 933 c-6 -14 -5 -15 5 -6 7 7 10 15 7 18 -3 3 -9 -2 -12 -12z"/>
<path d="M776 353 c-6 -14 -5 -15 5 -6 7 7 10 15 7 18 -3 3 -9 -2 -12 -12z"/>
<path d="M6500 366 c0 -2 7 -7 16 -10 8 -3 12 -2 9 4 -6 10 -25 14 -25 6z"/>
<path d="M6536 318 c3 -5 10 -6 15 -3 13 9 11 12 -6 12 -8 0 -12 -4 -9 -9z"/>
<path d="M715 280 c-3 -5 -1 -10 4 -10 6 0 11 5 11 10 0 6 -2 10 -4 10 -3 0
-8 -4 -11 -10z"/>
<path d="M721 237 c-1 -12 -6 -16 -13 -11 -10 5 -10 4 -1 -6 16 -17 26 -8 20
17 -4 17 -5 17 -6 0z"/>
</g>
</svg>
